<svg id="Layer_1" data-name="Layer 1" xmlns="http://www.w3.org/2000/svg" width="750" height="750" viewBox="0 0 750 750"><defs><style>.cls-1{fill:#010101;}.cls-2{fill:#fff;}.cls-3{fill:none;}</style></defs><title>peugeot-new-logo-freelogovectors.net_</title><path class="cls-1" d="M375,15.58a1907.72,1907.72,0,0,1,324,28c1.65,44.26,3.52,112.67.38,170.73-7,129.44-35.52,229.91-89.68,316.18-54,86-137.59,160-234.69,203.92-97.09-43.93-180.69-117.9-234.68-203.92C86.16,444.23,57.67,343.76,50.64,214.32,47.48,156.26,49.36,87.85,51,43.59A1907.81,1907.81,0,0,1,375,15.58Z"/><path class="cls-2" d="M375,33.5A1812.68,1812.68,0,0,1,682.84,60.11c1.56,42.05,3.34,107.06.36,162.22-6.69,123-33.76,218.45-85.22,300.42-51.29,81.73-130.73,152-223,193.75-92.25-41.74-171.69-112-223-193.75-51.45-82-78.53-177.43-85.21-300.42-3-55.16-1.21-120.17.35-162.22A1812.77,1812.77,0,0,1,375,33.5Z"/><path class="cls-1" d="M375,45.35A1802.6,1802.6,0,0,0,78.65,70.17c-2.17,62.39-2.17,112,0,151.52C85.19,342.58,111.7,436.25,162,516.45s125.81,146.43,213,187c87.15-40.59,162.63-106.83,213-187s76.84-173.87,83.41-294.76c2.15-39.49,2.15-89.13,0-151.52A1802.72,1802.72,0,0,0,375,45.35Z"/><path class="cls-2" d="M374.15,404.49s1.93,11.51,2.52,14.85a7.67,7.67,0,0,1-.07,4.25c-1.55,6-8.71,37.43-14.44,69.64l-.89,5.09c-2.34,13.56-4.36,27-5.54,38.55-.67,6.54-.45,8.11,1.28,13.92,4.89,16.41,23,59.29,26.48,67.11a9.73,9.73,0,0,1,.73,2.7h0l1.3,10.11c-5.8-8.76-37.32-66.75-49.7-98.86-1.46-3.79-1.74-5.65-.13-12.6C344.3,482.35,367.6,419.66,374.15,404.49Z"/><path class="cls-2" d="M328.18,315.36s2.42,7.86,4.76,16.38l.81,3A141.15,141.15,0,0,1,337,349.28a11.59,11.59,0,0,1-.81,7.44c-2.87,7.67-8.17,20-13.82,32.59L320,394.72C313,410,306,424.78,302.59,431.17a33,33,0,0,1-6.42,8.42c-7.21,7.35-21,21.23-29.56,29-3.11,2.83-3.94,5.24-4.58,8.9-1,5.87-2,15.89-2.31,21.06-.24,4.55.5,6.68,3,11.19,15.07,26.89,65.36,88.77,79.69,101.76a27.31,27.31,0,0,0,4,3c2.1,1.4,9,5.86,9,5.86a2.37,2.37,0,0,1,.68.73h0l2.49,4.38-.65-.32-1.08-.54L353.53,623l-3.2-1.6c-4.89-2.46-10.73-5.42-13.79-7.07a21.36,21.36,0,0,1-3.56-2.4c-16.78-13.95-68.19-74.18-83.31-99.32-3.77-6.28-4.16-8.31-3.66-14.25,1-11.06,2.42-25,3.71-31.07a17.13,17.13,0,0,1,4.4-9.08c9.46-10.91,21-25.3,32.26-40.07l3.95-5.23c17.05-22.66,32.75-45.34,38.61-56.89a10.51,10.51,0,0,0,1.49-6c.07-7.2-2.22-21.22-2.83-24.76a6.76,6.76,0,0,1-.07-1.68h0Z"/><path class="cls-2" d="M468.51,301.85l4.34,1.89a10.5,10.5,0,0,1,3.43,2.39c26.65,27.84,48,56.71,52.24,64.32a12.3,12.3,0,0,1,1.59,4.6c4.79,40.6.67,83.62-9.11,121-.89,3.38-1.88,5.11-5.12,7.55-10.45,7.86-26,20.4-41.54,33.19l-4.89,4c-18.68,15.47-36.42,30.63-43.95,37.6a28.46,28.46,0,0,0-4.89,5.94C417.08,590.16,411.68,600,409,605l-.74,1.38-.84,1.56c-3.51-7.67-11.17-26.39-13.79-33.95-.86-2.47-1-3.76-.11-7.07,4.29-15.69,24.53-61.29,28.47-69.54h0v3.38a4.71,4.71,0,0,1-.23,1.44c-1.78,5.39-12.66,41.33-14.88,56.92a21.81,21.81,0,0,0,0,7.81c1,7.27,5.32,20.62,5.32,20.62a92.89,92.89,0,0,1,5-9,24.22,24.22,0,0,1,3.81-4.55c9.74-9.64,26.34-24.54,43.64-39.52l6.12-5.28c13.29-11.41,26.56-22.52,37-31,2.72-2.21,3.74-3.68,4.34-7.87,3-20.65,3.88-57.7,2.07-84.67a28.94,28.94,0,0,0-4.86-14.24C502.81,381.61,495,372.4,483,360.58a11.85,11.85,0,0,1-3.3-6.22c-3.47-18.56-11.23-52.51-11.23-52.51Z"/><path class="cls-2" d="M243.12,344.8a9.31,9.31,0,0,1,5.1-.19c7.6,1.83,23.68,5.77,35.84,8.89A8.89,8.89,0,0,1,288.8,357h0l2.65,4.41a5.19,5.19,0,0,1,.17,5.05c-2.21,4.29-5.36,10.09-8.7,16.08l-2.52,4.5c-4.64,8.25-9.26,16.2-11.88,20.38-1.73,2.77-2.69,4-5.77,5.08-12,4.21-26.81,9.24-35.64,12.11-1.81.58-2.42,1.68-2.07,3.68.64,3.65,2.67,16,3.45,19.65a2.59,2.59,0,0,0,3.34,2c5.22-1,19.11-4.39,19.11-4.39s-4.1,3.79-6.55,6a4.15,4.15,0,0,1-1.55.92c-3.78,1.27-13,3.86-15.91,4.5-2.24.48-3.68-.4-4.25-2.95,0,0-3.94-16.79-5.37-22.5-.22-.87-.45-1.62-.72-2.48-1.07-3.31-3.63-9.8-5.08-13.21a3.1,3.1,0,0,1-.25-1.25c.05-3.89.76-12.56.76-12.56s8.51,8,12.62,10.86a2.65,2.65,0,0,0,2.62.5c5.66-1.46,18.66-5.76,25.79-8.43a9.94,9.94,0,0,0,4.17-3,208.69,208.69,0,0,0,22-33.27,6.21,6.21,0,0,0,.41-4.65h0l-1.15-3.79a4.88,4.88,0,0,0-2.59-2.78c-12.58-4.79-22.49-8.35-34.15-12.32h0Z"/><path class="cls-2" d="M491.88,236.73a11.61,11.61,0,0,1,8.52.19c21.09,8.86,56.54,29.71,76.25,44.39a6.76,6.76,0,0,1,3.16,4.69c4.62,21.06,6.38,53.63,3.47,81a14,14,0,0,1-1.63,5.25c-12.49,25.56-26.54,49.62-41.34,68.17h0l0-.3c.2-2,1.26-13.12,1.32-19.15a2.17,2.17,0,0,1,.86-1.72c2.75-2.14,6.52-5.17,8.65-7a10,10,0,0,0,2.16-2.45c6-9.75,16.8-30.15,21.14-42.43a22.43,22.43,0,0,0,1.22-9.34c-1.39-17.1-4.07-40.81-8.07-56.27a9.51,9.51,0,0,0-4.85-6.12c-3.44-1.77-10.21-4.85-25.61-11a21.7,21.7,0,0,1-5.88-3.53c-10.1-8.49-25.89-21.22-35.72-28.55a12.19,12.19,0,0,0-10-2.13c-7.16,1.62-16.27,3.89-21.4,5.28a8.88,8.88,0,0,1-4.22.3c-.94-.11-2.15-.23-3.42-.34l-1.93-.17-5.16-.42-.37,0C465.74,247.19,481.82,240.41,491.88,236.73Z"/><path class="cls-2" d="M269,375a218.38,218.38,0,0,1-16.18,23.46,5.61,5.61,0,0,1-2.38,1.67c-5.16,1.94-13.76,4.85-20.1,6.78h0Z"/><path class="cls-2" d="M199.9,363.7,196.82,385l-10.48-12.32c1.91-4.14,7.49-8.05,13.56-9Z"/><path class="cls-2" d="M256.38,243.12l-2.86,3.53-.48.47c-2.52,1.86-13.13,10-16,12.28a3.17,3.17,0,0,0-1.33,2.22c-.65,3.6-1.72,10.45-2,14.24A2.23,2.23,0,0,1,232,278c-4.92,2-10.76,4.12-15.48,6a6.18,6.18,0,0,0-1.89,1c-.47.37-6.74,6-6.74,6s13.63-3.36,18.63-4.49a3.5,3.5,0,0,1,2.81.32c1,.48,2.76,1.16,3.66,1.49a5.47,5.47,0,0,0,3.67.16c5.63-1.26,15.11-3.51,20.15-4.83a16.87,16.87,0,0,0,6.27-2.94c2.42-1.69,8.53-6.28,8.53-6.28s-.11.81-.19,1.26a1.76,1.76,0,0,1-.46.91c-1.24,1.5-3.42,3.94-4.5,5.05a17.56,17.56,0,0,1-7.07,4.79c-14.33,6-38.81,15.25-57.18,21.62a5.57,5.57,0,0,0-2.61,1.68c-1,1-2.26,2.42-2.26,2.42s15,1.09,19.54,1.61a6.27,6.27,0,0,1,3.67,1.64c3.76,3.23,16.2,16.05,19.92,20.5,0,0-35.36,5.88-51.74,10a4.51,4.51,0,0,0-3.5,3.41c-1.35,4.76-4.55,20.09-4.55,20.09a15.38,15.38,0,0,1-2.72-1.28,10.86,10.86,0,0,1-2.84-2.41,162.86,162.86,0,0,1-13.31-16.5c-.9-1.34-1.28-3.05-.15-4.42,3.32-4.09,10-11.56,13.67-15.4a9.36,9.36,0,0,0,1.42-2.18c1.24-2.46,2.87-8.7,3.44-10.95l.18-.73h0l0-.09-.1.06-.68.42-3,1.9a3.29,3.29,0,0,0-1.6,1.69c-.6,1.26-1.64,3.23-2.44,4.6a6.55,6.55,0,0,1-1.33,1.44c-4.69,3.59-9.88,7.45-13.58,10a.62.62,0,0,1-.79-.11c-.47-.47-2.45-2.72-2.8-3.24a2.4,2.4,0,0,1-.43-1.39c0-.94.09-2.59.18-3.81.11-1.45.53-2.14,2.29-4,2-2,4.12-4.2,6.38-6.41,5.54-4.67,19.54-16,44.52-33.88a5.23,5.23,0,0,0,1.24-1.2c2.63-3.54,10.08-13.22,11.92-15.52a5.63,5.63,0,0,1,.88-.88,68.79,68.79,0,0,1,7.38-5.22c7-4.39,20.44-12.39,28-16.79Z"/><path class="cls-2" d="M408.65,235.21a5.18,5.18,0,0,1,3.08.42h0l7.3,3.5a2.65,2.65,0,0,1,1.43,1.78c1,4.18,2.21,9.71,3,14.42a8.51,8.51,0,0,1-1,5.67c-3,5.25-9.22,14.7-12.69,19.78a5.14,5.14,0,0,0-.63,3.88c1.57,8.7,8.13,39.1,8.13,39.1h0L413.14,320a6,6,0,0,1-1.71-2.61c-2.93-8.6-8.43-26.57-11-35.31a4.58,4.58,0,0,1,.85-4.13c4.31-5.23,10.58-13.59,14.25-18.9a4.47,4.47,0,0,0,.76-4.36c-.85-1.73-2.27-4.36-3.63-6.75a3,3,0,0,0-1.7-1.39h0L406.05,245a4.15,4.15,0,0,0-2.65,0c-10.78,3.92-25.29,9.57-34.17,13.25a5,5,0,0,1-3.41.34c-2.57-.38-10.06-1.72-13.73-2.41a1,1,0,0,1-.65-1.45h0l4.35-7.55a4.22,4.22,0,0,1,2.72-2C372.52,242,391,238.32,408.65,235.21Z"/><path class="cls-2" d="M253.68,269.89a1.56,1.56,0,0,1,1.56.93,8,8,0,0,1-.21,6.29,3.48,3.48,0,0,1-2.18,1.75h0l-7,1.55a.65.65,0,0,1-.78-.67h0l.65-8.22a1.14,1.14,0,0,1,1-1h0Z"/><path class="cls-2" d="M333.2,217.12a1,1,0,0,1,.91,1.56h0l-17,29.37a7.55,7.55,0,0,1-4.42,3.59h0l-31.95,10a46.93,46.93,0,0,1-10.7,2c-7.09.53-28.13,1.19-28.13,1.19h0l.46-1a2.09,2.09,0,0,1,1.08-1.05h0l10-4.23a5,5,0,0,0,1.9-1.43h0l15.38-19a10.35,10.35,0,0,1,3-2.59A329,329,0,0,1,314.58,218a14.31,14.31,0,0,1,4.06-.66h0Z"/><path class="cls-2" d="M316.11,183c35.26-3.11,83-4,128.54-.5a24,24,0,0,1,7.51,1.82c14.93,6.29,41.42,20,70.88,36.91a22.35,22.35,0,0,1,3.64,2.61c7.81,6.88,27.58,27.13,27.58,27.13h0l-6.17-1.22a6.59,6.59,0,0,1-2.4-1,471.43,471.43,0,0,0-46-27,17,17,0,0,0-5.78-1.7c-7.43-.79-17.46-1.49-24-1.75a18.65,18.65,0,0,1-8.61-2.29c-6.05-3.07-20.72-9.73-28-12.52a17.36,17.36,0,0,0-7.78-1.43c-12.56.18-41.15,1.1-55.75,2a6.65,6.65,0,0,1-1.48-.07h0l-7-1.09c19.74-3.4,68.52-7.75,88.71-8.81h0l-8.22-2.75a16.65,16.65,0,0,0-4.91-.85c-4.39-.11-14.13-.3-26.79-.32H405.8c-19.16,0-43.82.51-66.56,2.22a17.43,17.43,0,0,0-5.76,1.44c-9.18,4-31.58,16.2-54.05,28.69l-5,2.77c-5.81,3.24-11.55,6.47-17,9.54l3.34-4.31a3.88,3.88,0,0,1,1.27-1.15c.91-.59,4-2.63,7.1-4.69l2.3-1.53c1.86-1.24,3.53-2.36,4.47-3,.46-.31.76-.54,1.34-1,6.76-5.11,17.44-14.11,23.8-19.68a19,19,0,0,0,3.67-4.36c2-3.33,4.3-6.94,5.68-8.95A7.59,7.59,0,0,1,316.11,183Z"/><path class="cls-2" d="M166,101.92c8.7-.9,13.57,2.48,13.57,11.31h0v4.88c0,9-4.87,12.68-13.57,13.58q-18.07,1.89-36.12,4.1h0v13.34l-7.57.94h0V107Q144.12,104.2,166,101.92Z"/><path class="cls-2" d="M570.17,100.52q28.8,2.81,57.54,6.44h0v7q-12.42-1.57-24.87-3h0v36.17l-7.58-.85h0V110.07q-12.53-1.38-25.09-2.6h0Z"/><path class="cls-2" d="M251.19,94.85v7q-23.68,1.47-47.36,3.48h0V115.9q21.06-1.82,42.12-3.15h0v7q-21.06,1.35-42.12,3.14h0v11.65q23.67-2,47.36-3.48h0v7q-27.41,1.69-54.77,4.13h0V99q27.38-2.43,54.77-4.12Z"/><path class="cls-2" d="M496.86,106.66c0-9.67,4.79-11.66,15.58-10.93q14.22,1,28.42,2.16c9.38.77,15.57,3.41,15.57,13.27h0v19.25c0,9.69-5.35,11.43-15.57,10.59q-14.21-1.19-28.42-2.15c-10.32-.7-15.58-2.69-15.58-12.94h0Z"/><path class="cls-2" d="M423.4,91.62q27.44.66,54.85,2.07h0v7q-23.7-1.22-47.43-1.87h0v10.61Q451.92,110,473,111h0v7q-21.09-1-42.19-1.61h0V128q23.73.64,47.43,1.87h0v7q-27.42-1.4-54.85-2.07h0Z"/><path class="cls-2" d="M328.24,91.59v31.18c0,9.87-5.18,12-15.61,12.35q-13.62.44-27.24,1c-9.68.44-15.59-1.41-15.59-11.17h0V93.79h0l7.41-.38v32.5a3.59,3.59,0,0,0,3.94,3.48q17.87-.82,35.71-1.35a3.75,3.75,0,0,0,3.76-3.77h0V91.78c2.54-.07,5.07-.14,7.62-.19Z"/><path class="cls-1" d="M508.22,102.41a3.56,3.56,0,0,0-4,3.68h0v21.32a4.39,4.39,0,0,0,4,4.21q18.45,1.22,36.87,2.78a3.82,3.82,0,0,0,3.93-3.61h0V109.47a4.49,4.49,0,0,0-3.93-4.29Q526.66,103.62,508.22,102.41Z"/><path class="cls-2" d="M361,91.09q20.46-.15,40.89.13h0v7q-21.84-.28-43.71-.11a4,4,0,0,0-3.95,3.7h0v21.6a4.19,4.19,0,0,0,3.95,3.91q19.6-.17,39.2.06h0V115.68q-11.37-.12-22.74-.12h0v-7q15.07,0,30.17.22h0v25.55q-21.19-.31-42.4-.19c-10.34.07-15.6-1.71-15.6-11.77h0V103.63C346.84,94.25,351.54,91.16,361,91.09Z"/><path class="cls-1" d="M168.81,108.63h-.59q-19.18,2-38.36,4.33h0v15.87q19.17-2.34,38.36-4.33c2-.21,3.93-2,3.93-3.88h0V111.9a3.51,3.51,0,0,0-3.93-3.26Z"/><rect class="cls-3" width="750" height="750"/></svg>